<svg width="48" height="47" viewBox="0 0 48 47" fill="none" xmlns="http://www.w3.org/2000/svg">
<path d="M30.9126 0.737765C33.3472 0.738208 35.6491 1.84726 37.1667 3.75098L45.7462 14.5134C47.2638 16.4171 47.8319 18.9083 47.2898 21.2817L44.2246 34.6997C43.6825 37.0732 42.089 39.0706 39.8953 40.1265L27.4936 46.0961C25.2999 47.152 22.7448 47.1515 20.5515 46.0948L8.15196 40.1207C5.95866 39.064 4.36591 37.066 3.82459 34.6924L0.764343 21.2733C0.223026 18.8996 0.792054 16.4086 2.31035 14.5055L10.8938 3.7462C12.4121 1.84304 14.7144 0.734816 17.149 0.73526L30.9126 0.737765Z" fill="#AEC90B"/>
</svg>
