<svg width="67" height="67" viewBox="0 0 67 67" fill="none" xmlns="http://www.w3.org/2000/svg">
<path d="M39.9125 12.2378C41.8906 12.2381 43.7609 13.1392 44.9939 14.686L53.5734 25.4484C54.8065 26.9952 55.2681 29.0193 54.8276 30.9477L51.7624 44.3657C51.3219 46.2941 50.0272 47.917 48.2448 48.775L35.8432 54.7445C34.0608 55.6025 31.9847 55.6021 30.2027 54.7435L17.8032 48.7694C16.0211 47.9108 14.727 46.2875 14.2872 44.3589L11.2269 30.9398C10.7871 29.0112 11.2494 26.9872 12.483 25.4409L21.0665 14.6817C22.3001 13.1353 24.1707 12.2349 26.1488 12.2353L39.9125 12.2378Z" fill="white" stroke="#819608" stroke-width="3"/>
<path d="M35.5195 25.8594H32.7461L29.25 28.0859V30.6836L32.4922 28.6523H32.5703V40H35.5195V25.8594Z" fill="#819608"/>
</svg>
