<svg width="25" height="24" viewBox="0 0 25 24" fill="none" xmlns="http://www.w3.org/2000/svg">
<path d="M11.1066 0.746801C11.4298 -0.248935 12.8369 -0.248933 13.1601 0.746803L15.2843 7.29172C15.4288 7.73703 15.8433 8.03852 16.311 8.03852H23.185C24.2308 8.03852 24.6657 9.37828 23.8196 9.99368L18.2584 14.0387C17.88 14.3139 17.7217 14.8017 17.8662 15.247L19.9904 21.7919C20.3136 22.7877 19.1752 23.6157 18.3291 23.0003L12.7679 18.9553C12.3895 18.6801 11.8772 18.6801 11.4988 18.9553L5.93757 23.0003C5.09149 23.6157 3.95311 22.7877 4.27628 21.7919L6.40047 15.247C6.545 14.8017 6.38667 14.3139 6.00829 14.0387L0.447084 9.99368C-0.398991 9.37828 0.0358354 8.03852 1.08164 8.03852H7.95567C8.42337 8.03852 8.83788 7.73703 8.98241 7.29172L11.1066 0.746801Z" fill="#AEC90B"/>
</svg>
